<?xml version="1.0" standalone="no"?>
<!DOCTYPE svg PUBLIC "-//W3C//DTD SVG 20010904//EN"
 "http://www.w3.org/TR/2001/REC-SVG-20010904/DTD/svg10.dtd">
<svg version="1.0" xmlns="http://www.w3.org/2000/svg"
 width="300.000000pt" height="300.000000pt" viewBox="0 0 300.000000 300.000000"
 preserveAspectRatio="xMidYMid meet">
<metadata>
Created by potrace 1.10, written by Peter Selinger 2001-2011
</metadata>
<g transform="translate(0.000000,300.000000) scale(0.100000,-0.100000)"
fill="#000000" stroke="none">
<path d="M1352 2850 c-360 -37 -712 -242 -945 -553 -193 -258 -290 -584 -257
-871 13 -117 59 -326 96 -441 82 -249 276 -495 515 -651 193 -127 348 -174
601 -181 200 -7 315 9 489 67 637 211 1022 762 1004 1440 -4 145 -27 287 -67
405 -12 39 -27 68 -33 65 -12 -6 -12 -3 20 -110 44 -145 58 -263 52 -460 -8
-251 -51 -423 -159 -631 -304 -586 -1036 -896 -1648 -698 -209 68 -436 241
-590 450 -70 95 -194 339 -172 339 4 0 16 -19 27 -43 120 -260 398 -515 692
-634 306 -123 611 -131 920 -22 247 87 477 256 636 467 223 298 291 610 232
1067 -53 403 -267 735 -570 884 -145 72 -232 91 -463 101 -106 5 -216 11 -245
13 -28 3 -90 1 -135 -3z m128 -37 c-264 -58 -546 -193 -740 -354 -63 -52 -180
-171 -231 -234 -188 -234 -312 -534 -321 -777 -5 -126 -18 -77 -18 66 0 270
64 479 217 710 85 129 255 300 378 382 223 147 453 223 680 222 l100 0 -65
-15z m430 -8 c324 -57 549 -230 707 -544 41 -81 90 -218 112 -313 17 -73 12
-70 -18 13 -73 196 -170 348 -316 494 -157 158 -331 266 -530 331 -111 36 -95
43 45 19z m-70 -35 c376 -129 668 -396 822 -751 60 -140 88 -261 88 -383 0
-101 -23 -237 -54 -325 -18 -50 -20 -71 -6 -71 9 0 53 129 49 146 -1 5 1 16 4
24 3 8 8 24 10 35 12 55 5 -53 -8 -122 -84 -442 -413 -818 -855 -977 -196 -71
-421 -93 -615 -62 -472 78 -888 422 -1040 861 -25 71 -28 94 -28 210 0 209 43
380 149 585 197 379 524 657 938 795 252 85 379 93 546 35z"/>
<path d="M911 1938 c-10 -24 -39 -90 -65 -147 -25 -57 -46 -107 -46 -112 0 -5
11 -9 24 -9 18 0 27 9 39 38 l15 37 77 -1 78 -1 15 -37 c11 -29 19 -36 42 -36
l28 0 -66 155 c-63 146 -69 154 -95 155 -23 0 -31 -7 -46 -42z m74 -78 c9 -25
19 -51 22 -57 4 -10 -10 -13 -51 -13 -31 0 -56 2 -56 4 0 2 7 21 16 42 9 22
21 50 26 63 11 29 19 21 43 -39z"/>
<path d="M1158 1828 l3 -153 109 0 c107 0 110 1 110 23 0 21 -4 22 -85 22
l-85 0 0 46 0 46 75 -4 c72 -3 75 -3 75 19 0 22 -4 23 -75 23 l-75 0 0 43 0
43 83 -1 c78 0 82 1 85 23 3 22 2 22 -110 22 l-113 0 3 -152z"/>
<path d="M1427 1968 c4 -7 27 -41 50 -75 l43 -61 -45 -66 c-26 -36 -50 -68
-56 -71 -18 -12 -8 -25 19 -25 23 0 36 11 71 61 l43 61 41 -61 c34 -49 47 -60
70 -61 15 0 27 3 27 6 0 4 -24 41 -54 83 l-53 76 25 35 c14 19 38 52 54 73
l29 37 -33 0 c-28 0 -38 -7 -67 -50 -19 -28 -37 -50 -40 -50 -3 0 -21 23 -40
50 -27 41 -39 50 -63 50 -21 0 -27 -4 -21 -12z"/>
<path d="M1746 1828 l2 -153 26 -3 26 -3 0 155 0 156 -27 0 -28 0 1 -152z"/>
<path d="M1931 1958 c-56 -38 -76 -73 -76 -132 1 -66 31 -111 93 -138 110 -49
227 27 225 145 -1 84 -58 138 -150 145 -48 3 -64 0 -92 -20z m123 -32 c62 -26
84 -92 52 -155 -39 -74 -159 -64 -192 16 -30 70 16 140 99 152 4 0 23 -5 41
-13z"/>
<path d="M1187 1493 c172 -2 454 -2 625 0 172 1 32 2 -312 2 -344 0 -484 -1
-313 -2z"/>
<path d="M1798 1283 l-108 -4 0 -149 0 -150 116 0 c112 0 115 1 112 22 -3 20
-8 21 -90 19 l-88 -2 0 45 0 46 75 0 c71 0 75 1 75 23 0 22 -3 22 -75 19 l-75
-4 0 46 0 46 85 0 c84 0 85 0 85 25 0 14 -1 24 -2 23 -2 -1 -51 -4 -110 -5z"/>
<path d="M1980 1133 l0 -153 27 0 26 0 -7 117 c-3 64 -4 114 0 111 3 -4 26
-48 50 -100 59 -126 67 -126 128 2 27 55 49 100 50 100 1 0 0 -52 -2 -115 l-5
-115 27 0 26 0 0 153 0 154 -31 -5 c-28 -4 -35 -14 -77 -103 -26 -54 -49 -98
-52 -98 -3 0 -26 44 -52 98 -42 89 -49 99 -77 103 l-31 5 0 -154z"/>
<path d="M2341 1284 c2 -5 30 -56 62 -112 52 -91 58 -109 55 -148 -3 -42 -2
-44 24 -44 27 0 28 2 28 53 0 44 8 66 55 151 30 55 54 101 52 102 -1 1 -14 0
-28 -3 -21 -4 -35 -21 -65 -74 -20 -38 -40 -69 -43 -69 -3 0 -23 32 -44 70
-21 39 -44 70 -52 70 -7 0 -21 3 -31 7 -9 3 -15 2 -13 -3z"/>
<path d="M497 1273 c-8 -13 -127 -283 -127 -288 0 -3 11 -5 25 -5 19 0 28 8
39 35 l15 35 76 0 76 0 15 -35 c12 -29 20 -35 43 -35 l29 0 -27 58 c-15 31
-45 99 -67 149 -35 84 -42 93 -66 93 -15 0 -29 -3 -31 -7z m78 -162 c6 -20 3
-21 -49 -21 -31 0 -56 2 -56 5 0 2 12 34 27 70 l27 66 22 -49 c12 -28 25 -60
29 -71z"/>
<path d="M769 1256 c-37 -25 -69 -86 -69 -129 1 -42 37 -103 74 -127 30 -18
48 -22 94 -18 32 2 69 12 85 22 25 17 26 20 12 36 -15 17 -18 16 -53 -1 -44
-23 -55 -23 -97 -3 -108 51 -60 215 58 200 21 -2 46 -11 56 -20 16 -15 19 -15
35 3 18 19 17 21 -15 40 -50 30 -133 29 -180 -3z"/>
<path d="M1058 1130 l-66 -150 28 0 c24 0 30 6 40 35 l12 35 78 0 79 0 12 -35
c11 -29 18 -35 41 -35 15 0 28 1 28 3 0 1 -29 67 -64 147 -59 135 -66 145 -92
148 -28 3 -31 -1 -96 -148z m149 -27 c4 -10 -11 -13 -55 -13 l-61 0 23 53 c12
28 26 61 30 72 6 16 12 9 32 -40 14 -33 28 -66 31 -72z"/>
<path d="M1350 1130 l0 -150 86 0 c99 0 148 20 179 73 25 42 24 114 -1 157
-31 52 -75 70 -176 70 l-88 0 0 -150z m168 99 c39 -13 65 -52 65 -99 0 -72
-49 -110 -139 -110 l-44 0 0 110 0 110 44 0 c23 0 57 -5 74 -11z"/>
</g>
</svg>
